<?xml version="1.0" encoding="UTF-8" standalone="no"?>
<!DOCTYPE svg PUBLIC "-//W3C//DTD SVG 1.1//EN"
 "http://www.w3.org/Graphics/SVG/1.1/DTD/svg11.dtd">
<!-- Generated by graphviz version 2.47.0 (20210316.1410)
 -->
<!-- Title: snakemake_dag Pages: 1 -->
<svg width="583pt" height="332pt"
 viewBox="0.00 0.00 583.36 332.00" xmlns="http://www.w3.org/2000/svg" xmlns:xlink="http://www.w3.org/1999/xlink">
<g id="graph0" class="graph" transform="scale(1 1) rotate(0) translate(4 328)">
<title>snakemake_dag</title>
<polygon fill="white" stroke="transparent" points="-4,4 -4,-328 579.36,-328 579.36,4 -4,4"/>
<!-- 0 -->
<g id="node1" class="node">
<title>0</title>
<path fill="none" stroke="#56d86b" stroke-width="2" d="M198.86,-36C198.86,-36 168.86,-36 168.86,-36 162.86,-36 156.86,-30 156.86,-24 156.86,-24 156.86,-12 156.86,-12 156.86,-6 162.86,0 168.86,0 168.86,0 198.86,0 198.86,0 204.86,0 210.86,-6 210.86,-12 210.86,-12 210.86,-24 210.86,-24 210.86,-30 204.86,-36 198.86,-36"/>
<text text-anchor="middle" x="183.86" y="-15.5" font-family="sans" font-size="10.00">results</text>
</g>
<!-- 1 -->
<g id="node2" class="node">
<title>1</title>
<path fill="none" stroke="#5682d8" stroke-width="2" d="M140.86,-108C140.86,-108 90.86,-108 90.86,-108 84.86,-108 78.86,-102 78.86,-96 78.86,-96 78.86,-84 78.86,-84 78.86,-78 84.86,-72 90.86,-72 90.86,-72 140.86,-72 140.86,-72 146.86,-72 152.86,-78 152.86,-84 152.86,-84 152.86,-96 152.86,-96 152.86,-102 146.86,-108 140.86,-108"/>
<text text-anchor="middle" x="115.86" y="-87.5" font-family="sans" font-size="10.00">ciri2_merge</text>
</g>
<!-- 1&#45;&gt;0 -->
<g id="edge1" class="edge">
<title>1&#45;&gt;0</title>
<path fill="none" stroke="grey" stroke-width="2" d="M132.66,-71.7C140.98,-63.14 151.16,-52.66 160.25,-43.3"/>
<polygon fill="grey" stroke="grey" stroke-width="2" points="162.78,-45.72 167.24,-36.1 157.76,-40.84 162.78,-45.72"/>
</g>
<!-- 2 -->
<g id="node3" class="node">
<title>2</title>
<path fill="none" stroke="#d8b456" stroke-width="2" d="M58.86,-180C58.86,-180 28.86,-180 28.86,-180 22.86,-180 16.86,-174 16.86,-168 16.86,-168 16.86,-156 16.86,-156 16.86,-150 22.86,-144 28.86,-144 28.86,-144 58.86,-144 58.86,-144 64.86,-144 70.86,-150 70.86,-156 70.86,-156 70.86,-168 70.86,-168 70.86,-174 64.86,-180 58.86,-180"/>
<text text-anchor="middle" x="43.86" y="-159.5" font-family="sans" font-size="10.00">ciri2_id</text>
</g>
<!-- 2&#45;&gt;1 -->
<g id="edge3" class="edge">
<title>2&#45;&gt;1</title>
<path fill="none" stroke="grey" stroke-width="2" d="M61.65,-143.7C70.46,-135.14 81.24,-124.66 90.86,-115.3"/>
<polygon fill="grey" stroke="grey" stroke-width="2" points="93.53,-117.58 98.26,-108.1 88.65,-112.57 93.53,-117.58"/>
</g>
<!-- 3 -->
<g id="node4" class="node">
<title>3</title>
<path fill="none" stroke="#9fd856" stroke-width="2" stroke-dasharray="5,2" d="M60.36,-252C60.36,-252 27.36,-252 27.36,-252 21.36,-252 15.36,-246 15.36,-240 15.36,-240 15.36,-228 15.36,-228 15.36,-222 21.36,-216 27.36,-216 27.36,-216 60.36,-216 60.36,-216 66.36,-216 72.36,-222 72.36,-228 72.36,-228 72.36,-240 72.36,-240 72.36,-246 66.36,-252 60.36,-252"/>
<text text-anchor="middle" x="43.86" y="-231.5" font-family="sans" font-size="10.00">dw_ciri2</text>
</g>
<!-- 3&#45;&gt;2 -->
<g id="edge5" class="edge">
<title>3&#45;&gt;2</title>
<path fill="none" stroke="grey" stroke-width="2" d="M43.86,-215.7C43.86,-207.98 43.86,-198.71 43.86,-190.11"/>
<polygon fill="grey" stroke="grey" stroke-width="2" points="47.36,-190.1 43.86,-180.1 40.36,-190.1 47.36,-190.1"/>
</g>
<!-- 6 -->
<g id="node7" class="node">
<title>6</title>
<path fill="none" stroke="#d8b456" stroke-width="2" d="M130.86,-180C130.86,-180 100.86,-180 100.86,-180 94.86,-180 88.86,-174 88.86,-168 88.86,-168 88.86,-156 88.86,-156 88.86,-150 94.86,-144 100.86,-144 100.86,-144 130.86,-144 130.86,-144 136.86,-144 142.86,-150 142.86,-156 142.86,-156 142.86,-168 142.86,-168 142.86,-174 136.86,-180 130.86,-180"/>
<text text-anchor="middle" x="115.86" y="-159.5" font-family="sans" font-size="10.00">ciri2_id</text>
</g>
<!-- 3&#45;&gt;6 -->
<g id="edge8" class="edge">
<title>3&#45;&gt;6</title>
<path fill="none" stroke="grey" stroke-width="2" d="M61.65,-215.7C70.46,-207.14 81.24,-196.66 90.86,-187.3"/>
<polygon fill="grey" stroke="grey" stroke-width="2" points="93.53,-189.58 98.26,-180.1 88.65,-184.57 93.53,-189.58"/>
</g>
<!-- 4 -->
<g id="node5" class="node">
<title>4</title>
<path fill="none" stroke="#d88556" stroke-width="2" d="M188.86,-324C188.86,-324 86.86,-324 86.86,-324 80.86,-324 74.86,-318 74.86,-312 74.86,-312 74.86,-300 74.86,-300 74.86,-294 80.86,-288 86.86,-288 86.86,-288 188.86,-288 188.86,-288 194.86,-288 200.86,-294 200.86,-300 200.86,-300 200.86,-312 200.86,-312 200.86,-318 194.86,-324 188.86,-324"/>
<text text-anchor="middle" x="137.86" y="-309" font-family="sans" font-size="10.00">bwa_mem</text>
<text text-anchor="middle" x="137.86" y="-298" font-family="sans" font-size="10.00">sample: SRR12794703</text>
</g>
<!-- 4&#45;&gt;2 -->
<g id="edge6" class="edge">
<title>4&#45;&gt;2</title>
<path fill="none" stroke="grey" stroke-width="2" d="M74.59,-295.41C48.79,-288.04 21.42,-275.02 5.86,-252 -7.67,-232 5.97,-206.4 20.54,-187.8"/>
<polygon fill="grey" stroke="grey" stroke-width="2" points="23.28,-189.97 26.98,-180.04 17.9,-185.49 23.28,-189.97"/>
</g>
<!-- 10 -->
<g id="node11" class="node">
<title>10</title>
<path fill="none" stroke="#56d8c9" stroke-width="2" d="M325.36,-252C325.36,-252 254.36,-252 254.36,-252 248.36,-252 242.36,-246 242.36,-240 242.36,-240 242.36,-228 242.36,-228 242.36,-222 248.36,-216 254.36,-216 254.36,-216 325.36,-216 325.36,-216 331.36,-216 337.36,-222 337.36,-228 337.36,-228 337.36,-240 337.36,-240 337.36,-246 331.36,-252 325.36,-252"/>
<text text-anchor="middle" x="289.86" y="-231.5" font-family="sans" font-size="10.00">circexplorer2_id</text>
</g>
<!-- 4&#45;&gt;10 -->
<g id="edge16" class="edge">
<title>4&#45;&gt;10</title>
<path fill="none" stroke="grey" stroke-width="2" d="M175.04,-287.88C195.73,-278.35 221.66,-266.41 243.64,-256.28"/>
<polygon fill="grey" stroke="grey" stroke-width="2" points="245.17,-259.43 252.79,-252.07 242.25,-253.07 245.17,-259.43"/>
</g>
<!-- 5 -->
<g id="node6" class="node">
<title>5</title>
<path fill="none" stroke="#ced856" stroke-width="2" stroke-dasharray="5,2" d="M212.36,-252C212.36,-252 141.36,-252 141.36,-252 135.36,-252 129.36,-246 129.36,-240 129.36,-240 129.36,-228 129.36,-228 129.36,-222 135.36,-216 141.36,-216 141.36,-216 212.36,-216 212.36,-216 218.36,-216 224.36,-222 224.36,-228 224.36,-228 224.36,-240 224.36,-240 224.36,-246 218.36,-252 212.36,-252"/>
<text text-anchor="middle" x="176.86" y="-231.5" font-family="sans" font-size="10.00">dw_ref_genome</text>
</g>
<!-- 5&#45;&gt;2 -->
<g id="edge7" class="edge">
<title>5&#45;&gt;2</title>
<path fill="none" stroke="grey" stroke-width="2" d="M144.32,-215.88C124.85,-205.63 100.06,-192.58 79.98,-182.01"/>
<polygon fill="grey" stroke="grey" stroke-width="2" points="81.6,-178.91 71.12,-177.35 78.34,-185.11 81.6,-178.91"/>
</g>
<!-- 5&#45;&gt;6 -->
<g id="edge10" class="edge">
<title>5&#45;&gt;6</title>
<path fill="none" stroke="grey" stroke-width="2" d="M161.78,-215.7C154.46,-207.3 145.55,-197.07 137.52,-187.86"/>
<polygon fill="grey" stroke="grey" stroke-width="2" points="139.97,-185.34 130.76,-180.1 134.69,-189.94 139.97,-185.34"/>
</g>
<!-- 9 -->
<g id="node10" class="node">
<title>9</title>
<path fill="none" stroke="#d85656" stroke-width="2" d="M309.86,-180C309.86,-180 195.86,-180 195.86,-180 189.86,-180 183.86,-174 183.86,-168 183.86,-168 183.86,-156 183.86,-156 183.86,-150 189.86,-144 195.86,-144 195.86,-144 309.86,-144 309.86,-144 315.86,-144 321.86,-150 321.86,-156 321.86,-156 321.86,-168 321.86,-168 321.86,-174 315.86,-180 309.86,-180"/>
<text text-anchor="middle" x="252.86" y="-159.5" font-family="sans" font-size="10.00">circexplorer2_annotation</text>
</g>
<!-- 5&#45;&gt;9 -->
<g id="edge14" class="edge">
<title>5&#45;&gt;9</title>
<path fill="none" stroke="grey" stroke-width="2" d="M195.64,-215.7C205.03,-207.05 216.54,-196.45 226.77,-187.03"/>
<polygon fill="grey" stroke="grey" stroke-width="2" points="229.3,-189.45 234.29,-180.1 224.56,-184.3 229.3,-189.45"/>
</g>
<!-- 12 -->
<g id="node13" class="node">
<title>12</title>
<path fill="none" stroke="#d85656" stroke-width="2" d="M465.86,-180C465.86,-180 351.86,-180 351.86,-180 345.86,-180 339.86,-174 339.86,-168 339.86,-168 339.86,-156 339.86,-156 339.86,-150 345.86,-144 351.86,-144 351.86,-144 465.86,-144 465.86,-144 471.86,-144 477.86,-150 477.86,-156 477.86,-156 477.86,-168 477.86,-168 477.86,-174 471.86,-180 465.86,-180"/>
<text text-anchor="middle" x="408.86" y="-159.5" font-family="sans" font-size="10.00">circexplorer2_annotation</text>
</g>
<!-- 5&#45;&gt;12 -->
<g id="edge18" class="edge">
<title>5&#45;&gt;12</title>
<path fill="none" stroke="grey" stroke-width="2" d="M224.36,-218.67C258.44,-208.38 304.8,-194.4 342.52,-183.02"/>
<polygon fill="grey" stroke="grey" stroke-width="2" points="343.85,-186.27 352.41,-180.03 341.82,-179.57 343.85,-186.27"/>
</g>
<!-- 6&#45;&gt;1 -->
<g id="edge4" class="edge">
<title>6&#45;&gt;1</title>
<path fill="none" stroke="grey" stroke-width="2" d="M115.86,-143.7C115.86,-135.98 115.86,-126.71 115.86,-118.11"/>
<polygon fill="grey" stroke="grey" stroke-width="2" points="119.36,-118.1 115.86,-108.1 112.36,-118.1 119.36,-118.1"/>
</g>
<!-- 7 -->
<g id="node8" class="node">
<title>7</title>
<path fill="none" stroke="#d88556" stroke-width="2" d="M455.86,-324C455.86,-324 353.86,-324 353.86,-324 347.86,-324 341.86,-318 341.86,-312 341.86,-312 341.86,-300 341.86,-300 341.86,-294 347.86,-288 353.86,-288 353.86,-288 455.86,-288 455.86,-288 461.86,-288 467.86,-294 467.86,-300 467.86,-300 467.86,-312 467.86,-312 467.86,-318 461.86,-324 455.86,-324"/>
<text text-anchor="middle" x="404.86" y="-309" font-family="sans" font-size="10.00">bwa_mem</text>
<text text-anchor="middle" x="404.86" y="-298" font-family="sans" font-size="10.00">sample: SRR12794713</text>
</g>
<!-- 7&#45;&gt;6 -->
<g id="edge9" class="edge">
<title>7&#45;&gt;6</title>
<path fill="none" stroke="grey" stroke-width="2" d="M341.79,-302.15C266.81,-297.32 148.22,-284.61 119.86,-252 105.31,-235.28 105.79,-209.41 109.04,-189.86"/>
<polygon fill="grey" stroke="grey" stroke-width="2" points="112.48,-190.51 110.98,-180.02 105.61,-189.15 112.48,-190.51"/>
</g>
<!-- 13 -->
<g id="node14" class="node">
<title>13</title>
<path fill="none" stroke="#56d8c9" stroke-width="2" d="M563.36,-252C563.36,-252 492.36,-252 492.36,-252 486.36,-252 480.36,-246 480.36,-240 480.36,-240 480.36,-228 480.36,-228 480.36,-222 486.36,-216 492.36,-216 492.36,-216 563.36,-216 563.36,-216 569.36,-216 575.36,-222 575.36,-228 575.36,-228 575.36,-240 575.36,-240 575.36,-246 569.36,-252 563.36,-252"/>
<text text-anchor="middle" x="527.86" y="-231.5" font-family="sans" font-size="10.00">circexplorer2_id</text>
</g>
<!-- 7&#45;&gt;13 -->
<g id="edge20" class="edge">
<title>7&#45;&gt;13</title>
<path fill="none" stroke="grey" stroke-width="2" d="M434.94,-287.88C451.18,-278.64 471.4,-267.13 488.83,-257.21"/>
<polygon fill="grey" stroke="grey" stroke-width="2" points="490.69,-260.18 497.65,-252.19 487.23,-254.09 490.69,-260.18"/>
</g>
<!-- 8 -->
<g id="node9" class="node">
<title>8</title>
<path fill="none" stroke="#70d856" stroke-width="2" d="M299.36,-108C299.36,-108 206.36,-108 206.36,-108 200.36,-108 194.36,-102 194.36,-96 194.36,-96 194.36,-84 194.36,-84 194.36,-78 200.36,-72 206.36,-72 206.36,-72 299.36,-72 299.36,-72 305.36,-72 311.36,-78 311.36,-84 311.36,-84 311.36,-96 311.36,-96 311.36,-102 305.36,-108 299.36,-108"/>
<text text-anchor="middle" x="252.86" y="-87.5" font-family="sans" font-size="10.00">circexplorer2_merge</text>
</g>
<!-- 8&#45;&gt;0 -->
<g id="edge2" class="edge">
<title>8&#45;&gt;0</title>
<path fill="none" stroke="grey" stroke-width="2" d="M235.8,-71.7C227.36,-63.14 217.03,-52.66 207.81,-43.3"/>
<polygon fill="grey" stroke="grey" stroke-width="2" points="210.23,-40.77 200.72,-36.1 205.24,-45.68 210.23,-40.77"/>
</g>
<!-- 9&#45;&gt;8 -->
<g id="edge11" class="edge">
<title>9&#45;&gt;8</title>
<path fill="none" stroke="grey" stroke-width="2" d="M252.86,-143.7C252.86,-135.98 252.86,-126.71 252.86,-118.11"/>
<polygon fill="grey" stroke="grey" stroke-width="2" points="256.36,-118.1 252.86,-108.1 249.36,-118.1 256.36,-118.1"/>
</g>
<!-- 10&#45;&gt;9 -->
<g id="edge13" class="edge">
<title>10&#45;&gt;9</title>
<path fill="none" stroke="grey" stroke-width="2" d="M280.71,-215.7C276.45,-207.64 271.3,-197.89 266.59,-188.98"/>
<polygon fill="grey" stroke="grey" stroke-width="2" points="269.66,-187.31 261.9,-180.1 263.48,-190.58 269.66,-187.31"/>
</g>
<!-- 11 -->
<g id="node12" class="node">
<title>11</title>
<path fill="none" stroke="#56d89a" stroke-width="2" stroke-dasharray="5,2" d="M450.36,-252C450.36,-252 367.36,-252 367.36,-252 361.36,-252 355.36,-246 355.36,-240 355.36,-240 355.36,-228 355.36,-228 355.36,-222 361.36,-216 367.36,-216 367.36,-216 450.36,-216 450.36,-216 456.36,-216 462.36,-222 462.36,-228 462.36,-228 462.36,-240 462.36,-240 462.36,-246 456.36,-252 450.36,-252"/>
<text text-anchor="middle" x="408.86" y="-231.5" font-family="sans" font-size="10.00">dw_ref_annotation</text>
</g>
<!-- 11&#45;&gt;9 -->
<g id="edge15" class="edge">
<title>11&#45;&gt;9</title>
<path fill="none" stroke="grey" stroke-width="2" d="M370.69,-215.88C349.46,-206.35 322.85,-194.41 300.29,-184.28"/>
<polygon fill="grey" stroke="grey" stroke-width="2" points="301.45,-180.97 290.89,-180.07 298.58,-187.36 301.45,-180.97"/>
</g>
<!-- 11&#45;&gt;12 -->
<g id="edge19" class="edge">
<title>11&#45;&gt;12</title>
<path fill="none" stroke="grey" stroke-width="2" d="M408.86,-215.7C408.86,-207.98 408.86,-198.71 408.86,-190.11"/>
<polygon fill="grey" stroke="grey" stroke-width="2" points="412.36,-190.1 408.86,-180.1 405.36,-190.1 412.36,-190.1"/>
</g>
<!-- 12&#45;&gt;8 -->
<g id="edge12" class="edge">
<title>12&#45;&gt;8</title>
<path fill="none" stroke="grey" stroke-width="2" d="M370.69,-143.88C349.46,-134.35 322.85,-122.41 300.29,-112.28"/>
<polygon fill="grey" stroke="grey" stroke-width="2" points="301.45,-108.97 290.89,-108.07 298.58,-115.36 301.45,-108.97"/>
</g>
<!-- 13&#45;&gt;12 -->
<g id="edge17" class="edge">
<title>13&#45;&gt;12</title>
<path fill="none" stroke="grey" stroke-width="2" d="M498.75,-215.88C483.19,-206.72 463.84,-195.34 447.08,-185.48"/>
<polygon fill="grey" stroke="grey" stroke-width="2" points="448.47,-182.24 438.08,-180.19 444.92,-188.28 448.47,-182.24"/>
</g>
</g>
</svg>
