<?xml version="1.0" encoding="UTF-8" standalone="no"?>
<!DOCTYPE svg PUBLIC "-//W3C//DTD SVG 1.1//EN"
 "http://www.w3.org/Graphics/SVG/1.1/DTD/svg11.dtd">
<!-- Generated by graphviz version 2.38.0 (20140413.2041)
 -->
<!-- Title: snakemake_dag Pages: 1 -->
<svg width="231pt" height="404pt"
 viewBox="0.00 0.00 230.50 404.00" xmlns="http://www.w3.org/2000/svg" xmlns:xlink="http://www.w3.org/1999/xlink">
<g id="graph0" class="graph" transform="scale(1 1) rotate(0) translate(4 400)">
<title>snakemake_dag</title>
<polygon fill="white" stroke="none" points="-4,4 -4,-400 226.5,-400 226.5,4 -4,4"/>
<!-- 0 -->
<g id="node1" class="node"><title>0</title>
<path fill="none" stroke="#d6d856" stroke-width="2" d="M116.5,-36C116.5,-36 86.5,-36 86.5,-36 80.5,-36 74.5,-30 74.5,-24 74.5,-24 74.5,-12 74.5,-12 74.5,-6 80.5,-0 86.5,-0 86.5,-0 116.5,-0 116.5,-0 122.5,-0 128.5,-6 128.5,-12 128.5,-12 128.5,-24 128.5,-24 128.5,-30 122.5,-36 116.5,-36"/>
<text text-anchor="middle" x="101.5" y="-15.5" font-family="sans" font-size="10.00">results</text>
</g>
<!-- 1 -->
<g id="node2" class="node"><title>1</title>
<path fill="none" stroke="#569ad8" stroke-width="2" d="M69.5,-180C69.5,-180 39.5,-180 39.5,-180 33.5,-180 27.5,-174 27.5,-168 27.5,-168 27.5,-156 27.5,-156 27.5,-150 33.5,-144 39.5,-144 39.5,-144 69.5,-144 69.5,-144 75.5,-144 81.5,-150 81.5,-156 81.5,-156 81.5,-168 81.5,-168 81.5,-174 75.5,-180 69.5,-180"/>
<text text-anchor="middle" x="54.5" y="-159.5" font-family="sans" font-size="10.00">ciri2_id</text>
</g>
<!-- 1&#45;&gt;0 -->
<g id="edge1" class="edge"><title>1&#45;&gt;0</title>
<path fill="none" stroke="grey" stroke-width="2" d="M56.7218,-143.881C59.4131,-125.67 64.7133,-96.208 73.5,-72 76.802,-62.9027 81.4002,-53.4205 85.917,-45.0338"/>
<polygon fill="grey" stroke="grey" stroke-width="2" points="89.0817,-46.5454 90.9085,-36.1092 82.9724,-43.1283 89.0817,-46.5454"/>
</g>
<!-- 2 -->
<g id="node3" class="node"><title>2</title>
<path fill="none" stroke="#56d8d8" stroke-width="2" d="M45,-252C45,-252 12,-252 12,-252 6,-252 0,-246 0,-240 0,-240 0,-228 0,-228 0,-222 6,-216 12,-216 12,-216 45,-216 45,-216 51,-216 57,-222 57,-228 57,-228 57,-240 57,-240 57,-246 51,-252 45,-252"/>
<text text-anchor="middle" x="28.5" y="-231.5" font-family="sans" font-size="10.00">dw_ciri2</text>
</g>
<!-- 2&#45;&gt;1 -->
<g id="edge3" class="edge"><title>2&#45;&gt;1</title>
<path fill="none" stroke="grey" stroke-width="2" d="M34.927,-215.697C37.8551,-207.813 41.387,-198.304 44.6399,-189.546"/>
<polygon fill="grey" stroke="grey" stroke-width="2" points="47.946,-190.697 48.147,-180.104 41.384,-188.26 47.946,-190.697"/>
</g>
<!-- 3 -->
<g id="node4" class="node"><title>3</title>
<path fill="none" stroke="#97d856" stroke-width="2" d="M169.5,-252C169.5,-252 125.5,-252 125.5,-252 119.5,-252 113.5,-246 113.5,-240 113.5,-240 113.5,-228 113.5,-228 113.5,-222 119.5,-216 125.5,-216 125.5,-216 169.5,-216 169.5,-216 175.5,-216 181.5,-222 181.5,-228 181.5,-228 181.5,-240 181.5,-240 181.5,-246 175.5,-252 169.5,-252"/>
<text text-anchor="middle" x="147.5" y="-231.5" font-family="sans" font-size="10.00">bwa_mem</text>
</g>
<!-- 3&#45;&gt;1 -->
<g id="edge4" class="edge"><title>3&#45;&gt;1</title>
<path fill="none" stroke="grey" stroke-width="2" d="M124.511,-215.697C112.686,-206.796 98.108,-195.823 85.3214,-186.199"/>
<polygon fill="grey" stroke="grey" stroke-width="2" points="87.3188,-183.322 77.2243,-180.104 83.1092,-188.915 87.3188,-183.322"/>
</g>
<!-- 7 -->
<g id="node8" class="node"><title>7</title>
<path fill="none" stroke="#56d89a" stroke-width="2" d="M183,-180C183,-180 112,-180 112,-180 106,-180 100,-174 100,-168 100,-168 100,-156 100,-156 100,-150 106,-144 112,-144 112,-144 183,-144 183,-144 189,-144 195,-150 195,-156 195,-156 195,-168 195,-168 195,-174 189,-180 183,-180"/>
<text text-anchor="middle" x="147.5" y="-159.5" font-family="sans" font-size="10.00">circexplorer2_id</text>
</g>
<!-- 3&#45;&gt;7 -->
<g id="edge10" class="edge"><title>3&#45;&gt;7</title>
<path fill="none" stroke="grey" stroke-width="2" d="M147.5,-215.697C147.5,-207.983 147.5,-198.712 147.5,-190.112"/>
<polygon fill="grey" stroke="grey" stroke-width="2" points="151,-190.104 147.5,-180.104 144,-190.104 151,-190.104"/>
</g>
<!-- 4 -->
<g id="node5" class="node"><title>4</title>
<path fill="none" stroke="#d89556" stroke-width="2" d="M210.5,-324C210.5,-324 84.5,-324 84.5,-324 78.5,-324 72.5,-318 72.5,-312 72.5,-312 72.5,-300 72.5,-300 72.5,-294 78.5,-288 84.5,-288 84.5,-288 210.5,-288 210.5,-288 216.5,-288 222.5,-294 222.5,-300 222.5,-300 222.5,-312 222.5,-312 222.5,-318 216.5,-324 210.5,-324"/>
<text text-anchor="middle" x="147.5" y="-309" font-family="sans" font-size="10.00">bwa_index</text>
<text text-anchor="middle" x="147.5" y="-298" font-family="sans" font-size="10.00">genome: hg19_ref_genome</text>
</g>
<!-- 4&#45;&gt;1 -->
<g id="edge5" class="edge"><title>4&#45;&gt;1</title>
<path fill="none" stroke="grey" stroke-width="2" d="M132.392,-287.909C123.773,-277.795 113.023,-264.545 104.5,-252 90.803,-231.838 77.3921,-207.652 67.913,-189.585"/>
<polygon fill="grey" stroke="grey" stroke-width="2" points="70.7811,-187.513 63.0745,-180.242 64.5651,-190.732 70.7811,-187.513"/>
</g>
<!-- 4&#45;&gt;3 -->
<g id="edge6" class="edge"><title>4&#45;&gt;3</title>
<path fill="none" stroke="grey" stroke-width="2" d="M147.5,-287.697C147.5,-279.983 147.5,-270.712 147.5,-262.112"/>
<polygon fill="grey" stroke="grey" stroke-width="2" points="151,-262.104 147.5,-252.104 144,-262.104 151,-262.104"/>
</g>
<!-- 6 -->
<g id="node7" class="node"><title>6</title>
<path fill="none" stroke="#d85656" stroke-width="2" d="M202.5,-108C202.5,-108 94.5,-108 94.5,-108 88.5,-108 82.5,-102 82.5,-96 82.5,-96 82.5,-84 82.5,-84 82.5,-78 88.5,-72 94.5,-72 94.5,-72 202.5,-72 202.5,-72 208.5,-72 214.5,-78 214.5,-84 214.5,-84 214.5,-96 214.5,-96 214.5,-102 208.5,-108 202.5,-108"/>
<text text-anchor="middle" x="148.5" y="-87.5" font-family="sans" font-size="10.00">circexplorer_annotation</text>
</g>
<!-- 4&#45;&gt;6 -->
<g id="edge9" class="edge"><title>4&#45;&gt;6</title>
<path fill="none" stroke="grey" stroke-width="2" d="M165.121,-287.91C174.093,-278.206 184.373,-265.354 190.5,-252 210.659,-208.057 222.414,-188.493 203.5,-144 198.765,-132.862 190.416,-122.93 181.632,-114.759"/>
<polygon fill="grey" stroke="grey" stroke-width="2" points="183.73,-111.946 173.88,-108.045 179.148,-117.238 183.73,-111.946"/>
</g>
<!-- 5 -->
<g id="node6" class="node"><title>5</title>
<path fill="none" stroke="#59d856" stroke-width="2" d="M183,-396C183,-396 112,-396 112,-396 106,-396 100,-390 100,-384 100,-384 100,-372 100,-372 100,-366 106,-360 112,-360 112,-360 183,-360 183,-360 189,-360 195,-366 195,-372 195,-372 195,-384 195,-384 195,-390 189,-396 183,-396"/>
<text text-anchor="middle" x="147.5" y="-375.5" font-family="sans" font-size="10.00">dw_ref_genome</text>
</g>
<!-- 5&#45;&gt;4 -->
<g id="edge7" class="edge"><title>5&#45;&gt;4</title>
<path fill="none" stroke="grey" stroke-width="2" d="M147.5,-359.697C147.5,-351.983 147.5,-342.712 147.5,-334.112"/>
<polygon fill="grey" stroke="grey" stroke-width="2" points="151,-334.104 147.5,-324.104 144,-334.104 151,-334.104"/>
</g>
<!-- 6&#45;&gt;0 -->
<g id="edge2" class="edge"><title>6&#45;&gt;0</title>
<path fill="none" stroke="grey" stroke-width="2" d="M136.882,-71.6966C131.361,-63.4741 124.653,-53.4832 118.568,-44.4207"/>
<polygon fill="grey" stroke="grey" stroke-width="2" points="121.465,-42.4555 112.984,-36.1043 115.653,-46.3576 121.465,-42.4555"/>
</g>
<!-- 7&#45;&gt;6 -->
<g id="edge8" class="edge"><title>7&#45;&gt;6</title>
<path fill="none" stroke="grey" stroke-width="2" d="M147.747,-143.697C147.857,-135.983 147.99,-126.712 148.113,-118.112"/>
<polygon fill="grey" stroke="grey" stroke-width="2" points="151.612,-118.153 148.256,-108.104 144.613,-118.053 151.612,-118.153"/>
</g>
</g>
</svg>
