<?xml version="1.0" encoding="UTF-8" standalone="no"?>
<!DOCTYPE svg PUBLIC "-//W3C//DTD SVG 1.1//EN"
 "http://www.w3.org/Graphics/SVG/1.1/DTD/svg11.dtd">
<!-- Generated by graphviz version 2.38.0 (20140413.2041)
 -->
<!-- Title: snakemake_dag Pages: 1 -->
<svg width="216pt" height="260pt"
 viewBox="0.00 0.00 216.00 260.00" xmlns="http://www.w3.org/2000/svg" xmlns:xlink="http://www.w3.org/1999/xlink">
<g id="graph0" class="graph" transform="scale(1 1) rotate(0) translate(4 256)">
<title>snakemake_dag</title>
<polygon fill="white" stroke="none" points="-4,4 -4,-256 212,-256 212,4 -4,4"/>
<!-- 0 -->
<g id="node1" class="node"><title>0</title>
<path fill="none" stroke="#d85656" stroke-width="2" d="M115.5,-36C115.5,-36 85.5,-36 85.5,-36 79.5,-36 73.5,-30 73.5,-24 73.5,-24 73.5,-12 73.5,-12 73.5,-6 79.5,-0 85.5,-0 85.5,-0 115.5,-0 115.5,-0 121.5,-0 127.5,-6 127.5,-12 127.5,-12 127.5,-24 127.5,-24 127.5,-30 121.5,-36 115.5,-36"/>
<text text-anchor="middle" x="100.5" y="-15.5" font-family="sans" font-size="10.00">results</text>
</g>
<!-- 1 -->
<g id="node2" class="node"><title>1</title>
<path fill="none" stroke="#afd856" stroke-width="2" d="M76.5,-108C76.5,-108 12.5,-108 12.5,-108 6.5,-108 0.5,-102 0.5,-96 0.5,-96 0.5,-84 0.5,-84 0.5,-78 6.5,-72 12.5,-72 12.5,-72 76.5,-72 76.5,-72 82.5,-72 88.5,-78 88.5,-84 88.5,-84 88.5,-96 88.5,-96 88.5,-102 82.5,-108 76.5,-108"/>
<text text-anchor="middle" x="44.5" y="-87.5" font-family="sans" font-size="10.00">multiqc_report</text>
</g>
<!-- 1&#45;&gt;0 -->
<g id="edge1" class="edge"><title>1&#45;&gt;0</title>
<path fill="none" stroke="grey" stroke-width="2" d="M58.3427,-71.6966C64.9885,-63.3893 73.0784,-53.2771 80.3874,-44.1407"/>
<polygon fill="grey" stroke="grey" stroke-width="2" points="83.3026,-46.0995 86.8165,-36.1043 77.8365,-41.7266 83.3026,-46.0995"/>
</g>
<!-- 2 -->
<g id="node3" class="node"><title>2</title>
<path fill="none" stroke="#56a9d8" stroke-width="2" d="M77,-180C77,-180 12,-180 12,-180 6,-180 7.10543e-15,-174 7.10543e-15,-168 7.10543e-15,-168 7.10543e-15,-156 7.10543e-15,-156 7.10543e-15,-150 6,-144 12,-144 12,-144 77,-144 77,-144 83,-144 89,-150 89,-156 89,-156 89,-168 89,-168 89,-174 83,-180 77,-180"/>
<text text-anchor="middle" x="44.5" y="-159.5" font-family="sans" font-size="10.00">quality_control</text>
</g>
<!-- 2&#45;&gt;1 -->
<g id="edge3" class="edge"><title>2&#45;&gt;1</title>
<path fill="none" stroke="grey" stroke-width="2" d="M44.5,-143.697C44.5,-135.983 44.5,-126.712 44.5,-118.112"/>
<polygon fill="grey" stroke="grey" stroke-width="2" points="48.0001,-118.104 44.5,-108.104 41.0001,-118.104 48.0001,-118.104"/>
</g>
<!-- 3 -->
<g id="node4" class="node"><title>3</title>
<path fill="none" stroke="#56d8a9" stroke-width="2" d="M194,-108C194,-108 119,-108 119,-108 113,-108 107,-102 107,-96 107,-96 107,-84 107,-84 107,-78 113,-72 119,-72 119,-72 194,-72 194,-72 200,-72 206,-78 206,-84 206,-84 206,-96 206,-96 206,-102 200,-108 194,-108"/>
<text text-anchor="middle" x="156.5" y="-87.5" font-family="sans" font-size="10.00">multiqc_report_2</text>
</g>
<!-- 3&#45;&gt;0 -->
<g id="edge2" class="edge"><title>3&#45;&gt;0</title>
<path fill="none" stroke="grey" stroke-width="2" d="M142.657,-71.6966C136.011,-63.3893 127.922,-53.2771 120.613,-44.1407"/>
<polygon fill="grey" stroke="grey" stroke-width="2" points="123.164,-41.7266 114.183,-36.1043 117.697,-46.0995 123.164,-41.7266"/>
</g>
<!-- 4 -->
<g id="node5" class="node"><title>4</title>
<path fill="none" stroke="#d8ac56" stroke-width="2" d="M196,-180C196,-180 119,-180 119,-180 113,-180 107,-174 107,-168 107,-168 107,-156 107,-156 107,-150 113,-144 119,-144 119,-144 196,-144 196,-144 202,-144 208,-150 208,-156 208,-156 208,-168 208,-168 208,-174 202,-180 196,-180"/>
<text text-anchor="middle" x="157.5" y="-159.5" font-family="sans" font-size="10.00">quality_control_2</text>
</g>
<!-- 4&#45;&gt;3 -->
<g id="edge4" class="edge"><title>4&#45;&gt;3</title>
<path fill="none" stroke="grey" stroke-width="2" d="M157.253,-143.697C157.143,-135.983 157.01,-126.712 156.887,-118.112"/>
<polygon fill="grey" stroke="grey" stroke-width="2" points="160.387,-118.053 156.744,-108.104 153.388,-118.153 160.387,-118.053"/>
</g>
<!-- 5 -->
<g id="node6" class="node"><title>5</title>
<path fill="none" stroke="#59d856" stroke-width="2" d="M176.5,-252C176.5,-252 138.5,-252 138.5,-252 132.5,-252 126.5,-246 126.5,-240 126.5,-240 126.5,-228 126.5,-228 126.5,-222 132.5,-216 138.5,-216 138.5,-216 176.5,-216 176.5,-216 182.5,-216 188.5,-222 188.5,-228 188.5,-228 188.5,-240 188.5,-240 188.5,-246 182.5,-252 176.5,-252"/>
<text text-anchor="middle" x="157.5" y="-231.5" font-family="sans" font-size="10.00">trimming</text>
</g>
<!-- 5&#45;&gt;4 -->
<g id="edge5" class="edge"><title>5&#45;&gt;4</title>
<path fill="none" stroke="grey" stroke-width="2" d="M157.5,-215.697C157.5,-207.983 157.5,-198.712 157.5,-190.112"/>
<polygon fill="grey" stroke="grey" stroke-width="2" points="161,-190.104 157.5,-180.104 154,-190.104 161,-190.104"/>
</g>
</g>
</svg>
