<?xml version="1.0" encoding="UTF-8" standalone="no"?>
<!DOCTYPE svg PUBLIC "-//W3C//DTD SVG 1.1//EN"
 "http://www.w3.org/Graphics/SVG/1.1/DTD/svg11.dtd">
<!-- Generated by graphviz version 2.38.0 (20140413.2041)
 -->
<!-- Title: snakemake_dag Pages: 1 -->
<svg width="2294pt" height="332pt"
 viewBox="0.00 0.00 2294.00 332.00" xmlns="http://www.w3.org/2000/svg" xmlns:xlink="http://www.w3.org/1999/xlink">
<g id="graph0" class="graph" transform="scale(1 1) rotate(0) translate(4 328)">
<title>snakemake_dag</title>
<polygon fill="white" stroke="none" points="-4,4 -4,-328 2290,-328 2290,4 -4,4"/>
<!-- 0 -->
<g id="node1" class="node"><title>0</title>
<path fill="none" stroke="#d8a456" stroke-width="2" d="M1158,-36C1158,-36 1128,-36 1128,-36 1122,-36 1116,-30 1116,-24 1116,-24 1116,-12 1116,-12 1116,-6 1122,-0 1128,-0 1128,-0 1158,-0 1158,-0 1164,-0 1170,-6 1170,-12 1170,-12 1170,-24 1170,-24 1170,-30 1164,-36 1158,-36"/>
<text text-anchor="middle" x="1143" y="-15.5" font-family="sans" font-size="10.00">results</text>
</g>
<!-- 1 -->
<g id="node2" class="node"><title>1</title>
<path fill="none" stroke="#c6d856" stroke-width="2" d="M1158,-108C1158,-108 1128,-108 1128,-108 1122,-108 1116,-102 1116,-96 1116,-96 1116,-84 1116,-84 1116,-78 1122,-72 1128,-72 1128,-72 1158,-72 1158,-72 1164,-72 1170,-78 1170,-84 1170,-84 1170,-96 1170,-96 1170,-102 1164,-108 1158,-108"/>
<text text-anchor="middle" x="1143" y="-87.5" font-family="sans" font-size="10.00">end</text>
</g>
<!-- 1&#45;&gt;0 -->
<g id="edge1" class="edge"><title>1&#45;&gt;0</title>
<path fill="none" stroke="grey" stroke-width="2" d="M1143,-71.6966C1143,-63.9827 1143,-54.7125 1143,-46.1124"/>
<polygon fill="grey" stroke="grey" stroke-width="2" points="1146.5,-46.1043 1143,-36.1043 1139.5,-46.1044 1146.5,-46.1043"/>
</g>
<!-- 2 -->
<g id="node3" class="node"><title>2</title>
<path fill="none" stroke="#d85656" stroke-width="2" d="M114,-180C114,-180 12,-180 12,-180 6,-180 0,-174 0,-168 0,-168 0,-156 0,-156 0,-150 6,-144 12,-144 12,-144 114,-144 114,-144 120,-144 126,-150 126,-156 126,-156 126,-168 126,-168 126,-174 120,-180 114,-180"/>
<text text-anchor="middle" x="63" y="-165" font-family="sans" font-size="10.00">ciri2_quant</text>
<text text-anchor="middle" x="63" y="-154" font-family="sans" font-size="10.00">sample: SRR12794696</text>
</g>
<!-- 2&#45;&gt;1 -->
<g id="edge2" class="edge"><title>2&#45;&gt;1</title>
<path fill="none" stroke="grey" stroke-width="2" d="M126.094,-145.427C129.096,-144.899 132.076,-144.419 135,-144 511.223,-90.1385 973.439,-89.4988 1105.93,-90.5613"/>
<polygon fill="grey" stroke="grey" stroke-width="2" points="1105.93,-94.0613 1115.96,-90.6503 1105.99,-87.0616 1105.93,-94.0613"/>
</g>
<!-- 3 -->
<g id="node4" class="node"><title>3</title>
<path fill="none" stroke="#56d8c9" stroke-width="2" d="M1184,-252C1184,-252 1102,-252 1102,-252 1096,-252 1090,-246 1090,-240 1090,-240 1090,-228 1090,-228 1090,-222 1096,-216 1102,-216 1102,-216 1184,-216 1184,-216 1190,-216 1196,-222 1196,-228 1196,-228 1196,-240 1196,-240 1196,-246 1190,-252 1184,-252"/>
<text text-anchor="middle" x="1143" y="-231.5" font-family="sans" font-size="10.00">write_config_yaml</text>
</g>
<!-- 3&#45;&gt;2 -->
<g id="edge18" class="edge"><title>3&#45;&gt;2</title>
<path fill="none" stroke="grey" stroke-width="2" d="M1089.94,-233.547C940.809,-234.374 505.305,-231.919 136.171,-180.005"/>
<polygon fill="grey" stroke="grey" stroke-width="2" points="136.487,-176.514 126.094,-178.573 135.502,-183.445 136.487,-176.514"/>
</g>
<!-- 6 -->
<g id="node7" class="node"><title>6</title>
<path fill="none" stroke="#d85656" stroke-width="2" d="M258,-180C258,-180 156,-180 156,-180 150,-180 144,-174 144,-168 144,-168 144,-156 144,-156 144,-150 150,-144 156,-144 156,-144 258,-144 258,-144 264,-144 270,-150 270,-156 270,-156 270,-168 270,-168 270,-174 264,-180 258,-180"/>
<text text-anchor="middle" x="207" y="-165" font-family="sans" font-size="10.00">ciri2_quant</text>
<text text-anchor="middle" x="207" y="-154" font-family="sans" font-size="10.00">sample: SRR12794698</text>
</g>
<!-- 3&#45;&gt;6 -->
<g id="edge21" class="edge"><title>3&#45;&gt;6</title>
<path fill="none" stroke="grey" stroke-width="2" d="M1089.58,-232.881C955.031,-231.906 591.329,-225.086 280.214,-180.022"/>
<polygon fill="grey" stroke="grey" stroke-width="2" points="280.5,-176.527 270.098,-178.541 279.486,-183.453 280.5,-176.527"/>
</g>
<!-- 7 -->
<g id="node8" class="node"><title>7</title>
<path fill="none" stroke="#d85656" stroke-width="2" d="M402,-180C402,-180 300,-180 300,-180 294,-180 288,-174 288,-168 288,-168 288,-156 288,-156 288,-150 294,-144 300,-144 300,-144 402,-144 402,-144 408,-144 414,-150 414,-156 414,-156 414,-168 414,-168 414,-174 408,-180 402,-180"/>
<text text-anchor="middle" x="351" y="-165" font-family="sans" font-size="10.00">ciri2_quant</text>
<text text-anchor="middle" x="351" y="-154" font-family="sans" font-size="10.00">sample: SRR12794703</text>
</g>
<!-- 3&#45;&gt;7 -->
<g id="edge22" class="edge"><title>3&#45;&gt;7</title>
<path fill="none" stroke="grey" stroke-width="2" d="M1089.83,-231.963C971.677,-229.039 678.321,-218.362 424.266,-180.047"/>
<polygon fill="grey" stroke="grey" stroke-width="2" points="424.519,-176.545 414.105,-178.497 423.463,-183.465 424.519,-176.545"/>
</g>
<!-- 8 -->
<g id="node9" class="node"><title>8</title>
<path fill="none" stroke="#d85656" stroke-width="2" d="M546,-180C546,-180 444,-180 444,-180 438,-180 432,-174 432,-168 432,-168 432,-156 432,-156 432,-150 438,-144 444,-144 444,-144 546,-144 546,-144 552,-144 558,-150 558,-156 558,-156 558,-168 558,-168 558,-174 552,-180 546,-180"/>
<text text-anchor="middle" x="495" y="-165" font-family="sans" font-size="10.00">ciri2_quant</text>
<text text-anchor="middle" x="495" y="-154" font-family="sans" font-size="10.00">sample: SRR12794710</text>
</g>
<!-- 3&#45;&gt;8 -->
<g id="edge23" class="edge"><title>3&#45;&gt;8</title>
<path fill="none" stroke="grey" stroke-width="2" d="M1089.88,-230.604C989.627,-225.541 765.634,-211.655 568.097,-180.046"/>
<polygon fill="grey" stroke="grey" stroke-width="2" points="568.546,-176.574 558.116,-178.43 567.428,-183.484 568.546,-176.574"/>
</g>
<!-- 9 -->
<g id="node10" class="node"><title>9</title>
<path fill="none" stroke="#d85656" stroke-width="2" d="M690,-180C690,-180 588,-180 588,-180 582,-180 576,-174 576,-168 576,-168 576,-156 576,-156 576,-150 582,-144 588,-144 588,-144 690,-144 690,-144 696,-144 702,-150 702,-156 702,-156 702,-168 702,-168 702,-174 696,-180 690,-180"/>
<text text-anchor="middle" x="639" y="-165" font-family="sans" font-size="10.00">ciri2_quant</text>
<text text-anchor="middle" x="639" y="-154" font-family="sans" font-size="10.00">sample: SRR12794713</text>
</g>
<!-- 3&#45;&gt;9 -->
<g id="edge24" class="edge"><title>3&#45;&gt;9</title>
<path fill="none" stroke="grey" stroke-width="2" d="M1089.85,-228.375C1009.97,-221.007 854.088,-205.016 712.316,-180.128"/>
<polygon fill="grey" stroke="grey" stroke-width="2" points="712.592,-176.622 702.134,-178.321 711.369,-183.515 712.592,-176.622"/>
</g>
<!-- 10 -->
<g id="node11" class="node"><title>10</title>
<path fill="none" stroke="#d85656" stroke-width="2" d="M834,-180C834,-180 732,-180 732,-180 726,-180 720,-174 720,-168 720,-168 720,-156 720,-156 720,-150 726,-144 732,-144 732,-144 834,-144 834,-144 840,-144 846,-150 846,-156 846,-156 846,-168 846,-168 846,-174 840,-180 834,-180"/>
<text text-anchor="middle" x="783" y="-165" font-family="sans" font-size="10.00">ciri2_quant</text>
<text text-anchor="middle" x="783" y="-154" font-family="sans" font-size="10.00">sample: SRR12794716</text>
</g>
<!-- 3&#45;&gt;10 -->
<g id="edge25" class="edge"><title>3&#45;&gt;10</title>
<path fill="none" stroke="grey" stroke-width="2" d="M1089.76,-224.022C1033.94,-214.423 943.433,-198.345 855.995,-180.159"/>
<polygon fill="grey" stroke="grey" stroke-width="2" points="856.681,-176.726 846.176,-178.105 855.248,-183.578 856.681,-176.726"/>
</g>
<!-- 11 -->
<g id="node12" class="node"><title>11</title>
<path fill="none" stroke="#d85656" stroke-width="2" d="M978,-180C978,-180 876,-180 876,-180 870,-180 864,-174 864,-168 864,-168 864,-156 864,-156 864,-150 870,-144 876,-144 876,-144 978,-144 978,-144 984,-144 990,-150 990,-156 990,-156 990,-168 990,-168 990,-174 984,-180 978,-180"/>
<text text-anchor="middle" x="927" y="-165" font-family="sans" font-size="10.00">ciri2_quant</text>
<text text-anchor="middle" x="927" y="-154" font-family="sans" font-size="10.00">sample: SRR12794723</text>
</g>
<!-- 3&#45;&gt;11 -->
<g id="edge26" class="edge"><title>3&#45;&gt;11</title>
<path fill="none" stroke="grey" stroke-width="2" d="M1090.44,-215.966C1059.99,-206.1 1021.49,-193.622 989.501,-183.255"/>
<polygon fill="grey" stroke="grey" stroke-width="2" points="990.391,-179.864 979.799,-180.111 988.233,-186.523 990.391,-179.864"/>
</g>
<!-- 12 -->
<g id="node13" class="node"><title>12</title>
<path fill="none" stroke="#d85656" stroke-width="2" d="M1122,-180C1122,-180 1020,-180 1020,-180 1014,-180 1008,-174 1008,-168 1008,-168 1008,-156 1008,-156 1008,-150 1014,-144 1020,-144 1020,-144 1122,-144 1122,-144 1128,-144 1134,-150 1134,-156 1134,-156 1134,-168 1134,-168 1134,-174 1128,-180 1122,-180"/>
<text text-anchor="middle" x="1071" y="-165" font-family="sans" font-size="10.00">ciri2_quant</text>
<text text-anchor="middle" x="1071" y="-154" font-family="sans" font-size="10.00">sample: SRR12794726</text>
</g>
<!-- 3&#45;&gt;12 -->
<g id="edge27" class="edge"><title>3&#45;&gt;12</title>
<path fill="none" stroke="grey" stroke-width="2" d="M1125.2,-215.697C1116.4,-207.135 1105.62,-196.656 1096,-187.304"/>
<polygon fill="grey" stroke="grey" stroke-width="2" points="1098.2,-184.566 1088.59,-180.104 1093.32,-189.585 1098.2,-184.566"/>
</g>
<!-- 13 -->
<g id="node14" class="node"><title>13</title>
<path fill="none" stroke="#56a2d8" stroke-width="2" d="M1266,-180C1266,-180 1164,-180 1164,-180 1158,-180 1152,-174 1152,-168 1152,-168 1152,-156 1152,-156 1152,-150 1158,-144 1164,-144 1164,-144 1266,-144 1266,-144 1272,-144 1278,-150 1278,-156 1278,-156 1278,-168 1278,-168 1278,-174 1272,-180 1266,-180"/>
<text text-anchor="middle" x="1215" y="-165" font-family="sans" font-size="10.00">circexp_quant</text>
<text text-anchor="middle" x="1215" y="-154" font-family="sans" font-size="10.00">sample: SRR12794696</text>
</g>
<!-- 3&#45;&gt;13 -->
<g id="edge28" class="edge"><title>3&#45;&gt;13</title>
<path fill="none" stroke="grey" stroke-width="2" d="M1160.8,-215.697C1169.6,-207.135 1180.38,-196.656 1190,-187.304"/>
<polygon fill="grey" stroke="grey" stroke-width="2" points="1192.68,-189.585 1197.41,-180.104 1187.8,-184.566 1192.68,-189.585"/>
</g>
<!-- 14 -->
<g id="node15" class="node"><title>14</title>
<path fill="none" stroke="#56a2d8" stroke-width="2" d="M1410,-180C1410,-180 1308,-180 1308,-180 1302,-180 1296,-174 1296,-168 1296,-168 1296,-156 1296,-156 1296,-150 1302,-144 1308,-144 1308,-144 1410,-144 1410,-144 1416,-144 1422,-150 1422,-156 1422,-156 1422,-168 1422,-168 1422,-174 1416,-180 1410,-180"/>
<text text-anchor="middle" x="1359" y="-165" font-family="sans" font-size="10.00">circexp_quant</text>
<text text-anchor="middle" x="1359" y="-154" font-family="sans" font-size="10.00">sample: SRR12794698</text>
</g>
<!-- 3&#45;&gt;14 -->
<g id="edge29" class="edge"><title>3&#45;&gt;14</title>
<path fill="none" stroke="grey" stroke-width="2" d="M1195.56,-215.966C1226.01,-206.1 1264.51,-193.622 1296.5,-183.255"/>
<polygon fill="grey" stroke="grey" stroke-width="2" points="1297.77,-186.523 1306.2,-180.111 1295.61,-179.864 1297.77,-186.523"/>
</g>
<!-- 15 -->
<g id="node16" class="node"><title>15</title>
<path fill="none" stroke="#56a2d8" stroke-width="2" d="M1554,-180C1554,-180 1452,-180 1452,-180 1446,-180 1440,-174 1440,-168 1440,-168 1440,-156 1440,-156 1440,-150 1446,-144 1452,-144 1452,-144 1554,-144 1554,-144 1560,-144 1566,-150 1566,-156 1566,-156 1566,-168 1566,-168 1566,-174 1560,-180 1554,-180"/>
<text text-anchor="middle" x="1503" y="-165" font-family="sans" font-size="10.00">circexp_quant</text>
<text text-anchor="middle" x="1503" y="-154" font-family="sans" font-size="10.00">sample: SRR12794703</text>
</g>
<!-- 3&#45;&gt;15 -->
<g id="edge30" class="edge"><title>3&#45;&gt;15</title>
<path fill="none" stroke="grey" stroke-width="2" d="M1196.24,-224.022C1252.06,-214.423 1342.57,-198.345 1430.01,-180.159"/>
<polygon fill="grey" stroke="grey" stroke-width="2" points="1430.75,-183.578 1439.82,-178.105 1429.32,-176.726 1430.75,-183.578"/>
</g>
<!-- 16 -->
<g id="node17" class="node"><title>16</title>
<path fill="none" stroke="#56a2d8" stroke-width="2" d="M1698,-180C1698,-180 1596,-180 1596,-180 1590,-180 1584,-174 1584,-168 1584,-168 1584,-156 1584,-156 1584,-150 1590,-144 1596,-144 1596,-144 1698,-144 1698,-144 1704,-144 1710,-150 1710,-156 1710,-156 1710,-168 1710,-168 1710,-174 1704,-180 1698,-180"/>
<text text-anchor="middle" x="1647" y="-165" font-family="sans" font-size="10.00">circexp_quant</text>
<text text-anchor="middle" x="1647" y="-154" font-family="sans" font-size="10.00">sample: SRR12794710</text>
</g>
<!-- 3&#45;&gt;16 -->
<g id="edge31" class="edge"><title>3&#45;&gt;16</title>
<path fill="none" stroke="grey" stroke-width="2" d="M1196.15,-228.375C1276.03,-221.007 1431.91,-205.016 1573.68,-180.128"/>
<polygon fill="grey" stroke="grey" stroke-width="2" points="1574.63,-183.515 1583.87,-178.321 1573.41,-176.622 1574.63,-183.515"/>
</g>
<!-- 17 -->
<g id="node18" class="node"><title>17</title>
<path fill="none" stroke="#56a2d8" stroke-width="2" d="M1842,-180C1842,-180 1740,-180 1740,-180 1734,-180 1728,-174 1728,-168 1728,-168 1728,-156 1728,-156 1728,-150 1734,-144 1740,-144 1740,-144 1842,-144 1842,-144 1848,-144 1854,-150 1854,-156 1854,-156 1854,-168 1854,-168 1854,-174 1848,-180 1842,-180"/>
<text text-anchor="middle" x="1791" y="-165" font-family="sans" font-size="10.00">circexp_quant</text>
<text text-anchor="middle" x="1791" y="-154" font-family="sans" font-size="10.00">sample: SRR12794713</text>
</g>
<!-- 3&#45;&gt;17 -->
<g id="edge32" class="edge"><title>3&#45;&gt;17</title>
<path fill="none" stroke="grey" stroke-width="2" d="M1196.12,-230.604C1296.37,-225.541 1520.37,-211.655 1717.9,-180.046"/>
<polygon fill="grey" stroke="grey" stroke-width="2" points="1718.57,-183.484 1727.88,-178.43 1717.45,-176.574 1718.57,-183.484"/>
</g>
<!-- 18 -->
<g id="node19" class="node"><title>18</title>
<path fill="none" stroke="#56a2d8" stroke-width="2" d="M1986,-180C1986,-180 1884,-180 1884,-180 1878,-180 1872,-174 1872,-168 1872,-168 1872,-156 1872,-156 1872,-150 1878,-144 1884,-144 1884,-144 1986,-144 1986,-144 1992,-144 1998,-150 1998,-156 1998,-156 1998,-168 1998,-168 1998,-174 1992,-180 1986,-180"/>
<text text-anchor="middle" x="1935" y="-165" font-family="sans" font-size="10.00">circexp_quant</text>
<text text-anchor="middle" x="1935" y="-154" font-family="sans" font-size="10.00">sample: SRR12794716</text>
</g>
<!-- 3&#45;&gt;18 -->
<g id="edge33" class="edge"><title>3&#45;&gt;18</title>
<path fill="none" stroke="grey" stroke-width="2" d="M1196.17,-231.963C1314.32,-229.039 1607.68,-218.362 1861.73,-180.047"/>
<polygon fill="grey" stroke="grey" stroke-width="2" points="1862.54,-183.465 1871.89,-178.497 1861.48,-176.545 1862.54,-183.465"/>
</g>
<!-- 19 -->
<g id="node20" class="node"><title>19</title>
<path fill="none" stroke="#56a2d8" stroke-width="2" d="M2130,-180C2130,-180 2028,-180 2028,-180 2022,-180 2016,-174 2016,-168 2016,-168 2016,-156 2016,-156 2016,-150 2022,-144 2028,-144 2028,-144 2130,-144 2130,-144 2136,-144 2142,-150 2142,-156 2142,-156 2142,-168 2142,-168 2142,-174 2136,-180 2130,-180"/>
<text text-anchor="middle" x="2079" y="-165" font-family="sans" font-size="10.00">circexp_quant</text>
<text text-anchor="middle" x="2079" y="-154" font-family="sans" font-size="10.00">sample: SRR12794723</text>
</g>
<!-- 3&#45;&gt;19 -->
<g id="edge34" class="edge"><title>3&#45;&gt;19</title>
<path fill="none" stroke="grey" stroke-width="2" d="M1196.42,-232.881C1330.97,-231.906 1694.67,-225.086 2005.79,-180.022"/>
<polygon fill="grey" stroke="grey" stroke-width="2" points="2006.51,-183.453 2015.9,-178.541 2005.5,-176.527 2006.51,-183.453"/>
</g>
<!-- 20 -->
<g id="node21" class="node"><title>20</title>
<path fill="none" stroke="#56a2d8" stroke-width="2" d="M2274,-180C2274,-180 2172,-180 2172,-180 2166,-180 2160,-174 2160,-168 2160,-168 2160,-156 2160,-156 2160,-150 2166,-144 2172,-144 2172,-144 2274,-144 2274,-144 2280,-144 2286,-150 2286,-156 2286,-156 2286,-168 2286,-168 2286,-174 2280,-180 2274,-180"/>
<text text-anchor="middle" x="2223" y="-165" font-family="sans" font-size="10.00">circexp_quant</text>
<text text-anchor="middle" x="2223" y="-154" font-family="sans" font-size="10.00">sample: SRR12794726</text>
</g>
<!-- 3&#45;&gt;20 -->
<g id="edge35" class="edge"><title>3&#45;&gt;20</title>
<path fill="none" stroke="grey" stroke-width="2" d="M1196.06,-233.547C1345.19,-234.374 1780.69,-231.919 2149.83,-180.005"/>
<polygon fill="grey" stroke="grey" stroke-width="2" points="2150.5,-183.445 2159.91,-178.573 2149.51,-176.514 2150.5,-183.445"/>
</g>
<!-- 4 -->
<g id="node5" class="node"><title>4</title>
<path fill="none" stroke="#78d856" stroke-width="2" d="M1113.5,-324C1113.5,-324 1058.5,-324 1058.5,-324 1052.5,-324 1046.5,-318 1046.5,-312 1046.5,-312 1046.5,-300 1046.5,-300 1046.5,-294 1052.5,-288 1058.5,-288 1058.5,-288 1113.5,-288 1113.5,-288 1119.5,-288 1125.5,-294 1125.5,-300 1125.5,-300 1125.5,-312 1125.5,-312 1125.5,-318 1119.5,-324 1113.5,-324"/>
<text text-anchor="middle" x="1086" y="-303.5" font-family="sans" font-size="10.00">hisat2_index</text>
</g>
<!-- 4&#45;&gt;3 -->
<g id="edge19" class="edge"><title>4&#45;&gt;3</title>
<path fill="none" stroke="grey" stroke-width="2" d="M1100.09,-287.697C1106.92,-279.305 1115.26,-269.07 1122.76,-259.861"/>
<polygon fill="grey" stroke="grey" stroke-width="2" points="1125.47,-262.069 1129.07,-252.104 1120.04,-257.649 1125.47,-262.069"/>
</g>
<!-- 5 -->
<g id="node6" class="node"><title>5</title>
<path fill="none" stroke="#56d87b" stroke-width="2" d="M1244.5,-324C1244.5,-324 1155.5,-324 1155.5,-324 1149.5,-324 1143.5,-318 1143.5,-312 1143.5,-312 1143.5,-300 1143.5,-300 1143.5,-294 1149.5,-288 1155.5,-288 1155.5,-288 1244.5,-288 1244.5,-288 1250.5,-288 1256.5,-294 1256.5,-300 1256.5,-300 1256.5,-312 1256.5,-312 1256.5,-318 1250.5,-324 1244.5,-324"/>
<text text-anchor="middle" x="1200" y="-303.5" font-family="sans" font-size="10.00">reference_fai_index</text>
</g>
<!-- 5&#45;&gt;3 -->
<g id="edge20" class="edge"><title>5&#45;&gt;3</title>
<path fill="none" stroke="grey" stroke-width="2" d="M1185.91,-287.697C1179.08,-279.305 1170.74,-269.07 1163.24,-259.861"/>
<polygon fill="grey" stroke="grey" stroke-width="2" points="1165.96,-257.649 1156.93,-252.104 1160.53,-262.069 1165.96,-257.649"/>
</g>
<!-- 6&#45;&gt;1 -->
<g id="edge3" class="edge"><title>6&#45;&gt;1</title>
<path fill="none" stroke="grey" stroke-width="2" d="M270.098,-145.459C273.099,-144.923 276.078,-144.431 279,-144 596.493,-97.1304 985.528,-91.5759 1105.81,-91.0224"/>
<polygon fill="grey" stroke="grey" stroke-width="2" points="1105.96,-94.522 1115.95,-90.985 1105.94,-87.522 1105.96,-94.522"/>
</g>
<!-- 7&#45;&gt;1 -->
<g id="edge4" class="edge"><title>7&#45;&gt;1</title>
<path fill="none" stroke="grey" stroke-width="2" d="M414.105,-145.503C417.104,-144.955 420.08,-144.449 423,-144 681.996,-104.148 998.173,-94.0396 1105.39,-91.6726"/>
<polygon fill="grey" stroke="grey" stroke-width="2" points="1105.77,-95.1656 1115.69,-91.4552 1105.62,-88.1671 1105.77,-95.1656"/>
</g>
<!-- 8&#45;&gt;1 -->
<g id="edge5" class="edge"><title>8&#45;&gt;1</title>
<path fill="none" stroke="grey" stroke-width="2" d="M558.116,-145.57C561.112,-145.004 564.085,-144.476 567,-144 768.635,-111.086 1013.57,-97.0132 1105.63,-92.6224"/>
<polygon fill="grey" stroke="grey" stroke-width="2" points="1106.01,-96.1086 1115.84,-92.1458 1105.69,-89.1162 1106.01,-96.1086"/>
</g>
<!-- 9&#45;&gt;1 -->
<g id="edge6" class="edge"><title>9&#45;&gt;1</title>
<path fill="none" stroke="grey" stroke-width="2" d="M702.134,-145.679C705.126,-145.084 708.092,-144.52 711,-144 855.627,-118.135 1029.77,-100.986 1105.16,-94.2335"/>
<polygon fill="grey" stroke="grey" stroke-width="2" points="1105.9,-97.6818 1115.55,-93.3129 1105.28,-90.7091 1105.9,-97.6818"/>
</g>
<!-- 10&#45;&gt;1 -->
<g id="edge7" class="edge"><title>10&#45;&gt;1</title>
<path fill="none" stroke="grey" stroke-width="2" d="M846.176,-145.895C849.156,-145.242 852.109,-144.607 855,-144 944.746,-125.159 1051,-106.557 1105.95,-97.2103"/>
<polygon fill="grey" stroke="grey" stroke-width="2" points="1106.64,-100.643 1115.91,-95.521 1105.47,-93.7416 1106.64,-100.643"/>
</g>
<!-- 11&#45;&gt;1 -->
<g id="edge8" class="edge"><title>11&#45;&gt;1</title>
<path fill="none" stroke="grey" stroke-width="2" d="M979.563,-143.966C1018.77,-131.258 1071.36,-114.216 1106.17,-102.935"/>
<polygon fill="grey" stroke="grey" stroke-width="2" points="1107.5,-106.185 1115.93,-99.7727 1105.34,-99.5261 1107.5,-106.185"/>
</g>
<!-- 12&#45;&gt;1 -->
<g id="edge9" class="edge"><title>12&#45;&gt;1</title>
<path fill="none" stroke="grey" stroke-width="2" d="M1088.8,-143.697C1097.6,-135.135 1108.38,-124.656 1118,-115.304"/>
<polygon fill="grey" stroke="grey" stroke-width="2" points="1120.68,-117.585 1125.41,-108.104 1115.8,-112.566 1120.68,-117.585"/>
</g>
<!-- 13&#45;&gt;1 -->
<g id="edge10" class="edge"><title>13&#45;&gt;1</title>
<path fill="none" stroke="grey" stroke-width="2" d="M1197.2,-143.697C1188.4,-135.135 1177.62,-124.656 1168,-115.304"/>
<polygon fill="grey" stroke="grey" stroke-width="2" points="1170.2,-112.566 1160.59,-108.104 1165.32,-117.585 1170.2,-112.566"/>
</g>
<!-- 14&#45;&gt;1 -->
<g id="edge11" class="edge"><title>14&#45;&gt;1</title>
<path fill="none" stroke="grey" stroke-width="2" d="M1306.44,-143.966C1267.23,-131.258 1214.64,-114.216 1179.83,-102.935"/>
<polygon fill="grey" stroke="grey" stroke-width="2" points="1180.66,-99.5261 1170.07,-99.7727 1178.5,-106.185 1180.66,-99.5261"/>
</g>
<!-- 15&#45;&gt;1 -->
<g id="edge12" class="edge"><title>15&#45;&gt;1</title>
<path fill="none" stroke="grey" stroke-width="2" d="M1439.82,-145.895C1436.84,-145.242 1433.89,-144.607 1431,-144 1341.25,-125.159 1235,-106.557 1180.05,-97.2103"/>
<polygon fill="grey" stroke="grey" stroke-width="2" points="1180.53,-93.7416 1170.09,-95.521 1179.36,-100.643 1180.53,-93.7416"/>
</g>
<!-- 16&#45;&gt;1 -->
<g id="edge13" class="edge"><title>16&#45;&gt;1</title>
<path fill="none" stroke="grey" stroke-width="2" d="M1583.87,-145.679C1580.87,-145.084 1577.91,-144.52 1575,-144 1430.37,-118.135 1256.23,-100.986 1180.84,-94.2335"/>
<polygon fill="grey" stroke="grey" stroke-width="2" points="1180.72,-90.7091 1170.45,-93.3129 1180.1,-97.6818 1180.72,-90.7091"/>
</g>
<!-- 17&#45;&gt;1 -->
<g id="edge14" class="edge"><title>17&#45;&gt;1</title>
<path fill="none" stroke="grey" stroke-width="2" d="M1727.88,-145.57C1724.89,-145.004 1721.92,-144.476 1719,-144 1517.36,-111.086 1272.43,-97.0132 1180.37,-92.6224"/>
<polygon fill="grey" stroke="grey" stroke-width="2" points="1180.31,-89.1162 1170.16,-92.1458 1179.99,-96.1086 1180.31,-89.1162"/>
</g>
<!-- 18&#45;&gt;1 -->
<g id="edge15" class="edge"><title>18&#45;&gt;1</title>
<path fill="none" stroke="grey" stroke-width="2" d="M1871.89,-145.503C1868.9,-144.955 1865.92,-144.449 1863,-144 1604,-104.148 1287.83,-94.0396 1180.61,-91.6726"/>
<polygon fill="grey" stroke="grey" stroke-width="2" points="1180.38,-88.1671 1170.31,-91.4552 1180.23,-95.1656 1180.38,-88.1671"/>
</g>
<!-- 19&#45;&gt;1 -->
<g id="edge16" class="edge"><title>19&#45;&gt;1</title>
<path fill="none" stroke="grey" stroke-width="2" d="M2015.9,-145.459C2012.9,-144.923 2009.92,-144.431 2007,-144 1689.51,-97.1304 1300.47,-91.5759 1180.19,-91.0224"/>
<polygon fill="grey" stroke="grey" stroke-width="2" points="1180.06,-87.522 1170.05,-90.985 1180.04,-94.522 1180.06,-87.522"/>
</g>
<!-- 20&#45;&gt;1 -->
<g id="edge17" class="edge"><title>20&#45;&gt;1</title>
<path fill="none" stroke="grey" stroke-width="2" d="M2159.91,-145.427C2156.9,-144.899 2153.92,-144.419 2151,-144 1774.78,-90.1385 1312.56,-89.4988 1180.07,-90.5613"/>
<polygon fill="grey" stroke="grey" stroke-width="2" points="1180.01,-87.0616 1170.04,-90.6503 1180.07,-94.0613 1180.01,-87.0616"/>
</g>
</g>
</svg>
